<mxfile host="app.diagrams.net" modified="2023-04-04T15:10:29.068Z" agent="Mozilla/5.0 (Windows NT 10.0; Win64; x64) AppleWebKit/537.36 (KHTML, like Gecko) Chrome/111.0.0.0 Safari/537.36" version="21.1.4" etag="plL1Xo18ZtiS-jHgdrBg" type="github">
  <diagram name="Страница 1" id="Z6sxsTeRZ8yvNmVLJEK-">
    <mxGraphModel>
      <root>
        <mxCell id="0" />
        <mxCell id="1" parent="0" />
      </root>
    </mxGraphModel>
  </diagram>
</mxfile>
